M48
; DRILL file {KiCad 9.0.0} date 2025-02-27T14:40:51-0500
; FORMAT={-:-/ absolute / metric / decimal}
; #@! TF.CreationDate,2025-02-27T14:40:51-05:00
; #@! TF.GenerationSoftware,Kicad,Pcbnew,9.0.0
; #@! TF.FileFunction,Plated,1,2,PTH
FMAT,2
METRIC
; #@! TA.AperFunction,Plated,PTH,ViaDrill
T1C0.650
; #@! TA.AperFunction,Plated,PTH,ComponentDrill
T2C0.750
; #@! TA.AperFunction,Plated,PTH,ComponentDrill
T3C0.800
; #@! TA.AperFunction,Plated,PTH,ComponentDrill
T4C0.900
; #@! TA.AperFunction,Plated,PTH,ComponentDrill
T5C1.000
; #@! TA.AperFunction,Plated,PTH,ComponentDrill
T6C1.300
; #@! TA.AperFunction,Plated,PTH,ComponentDrill
T7C1.520
%
G90
G05
T1
X78.0Y-79.0
X87.0Y-79.0
X89.0Y-64.5
X89.0Y-73.0
X114.0Y-93.0
X153.0Y-72.0
T2
X116.1Y-103.8
X117.37Y-103.8
X118.64Y-103.8
T3
X131.0Y-78.65
X131.0Y-91.35
T4
X98.5Y-39.5
X98.5Y-42.04
X98.5Y-44.58
X98.5Y-47.12
X98.5Y-49.66
X98.5Y-52.2
X98.5Y-54.74
X98.5Y-57.28
X98.5Y-59.82
X98.5Y-62.36
X98.5Y-64.9
X98.5Y-67.44
X98.5Y-69.98
X98.5Y-72.52
X98.5Y-75.06
X98.5Y-77.6
X98.5Y-80.14
X98.5Y-82.68
X98.5Y-85.22
X123.9Y-39.5
X123.9Y-42.04
X123.9Y-44.58
X123.9Y-47.12
X123.9Y-49.66
X123.9Y-52.2
X123.9Y-54.74
X123.9Y-57.28
X123.9Y-59.82
X123.9Y-62.36
X123.9Y-64.9
X123.9Y-67.44
X123.9Y-69.98
X123.9Y-72.52
X123.9Y-75.06
X123.9Y-77.6
X123.9Y-80.14
X123.9Y-82.68
X123.9Y-85.22
T5
X82.0Y-49.38
X82.0Y-51.92
X82.0Y-54.46
X82.0Y-57.0
X82.0Y-64.88
X82.0Y-67.42
X82.0Y-69.96
X82.0Y-72.5
X89.745Y-83.5
X89.745Y-86.04
X89.745Y-88.58
X128.75Y-101.05
X128.75Y-113.05
X136.475Y-44.68
X136.475Y-47.22
X136.475Y-49.76
X136.475Y-52.3
X145.0Y-71.38
X145.0Y-73.92
X145.0Y-76.46
X145.0Y-79.0
T6
X126.8Y-107.0
X140.95Y-113.05
X141.0Y-101.0
T7
X159.35Y-104.35
X159.35Y-109.43
T5
G00X73.5Y-100.3
M15
G01X73.5Y-102.3
M16
G05
G00X75.5Y-106.0
M15
G01X77.5Y-106.0
M16
G05
G00X79.5Y-100.3
M15
G01X79.5Y-102.3
M16
G05
M30
