%TF.GenerationSoftware,KiCad,Pcbnew,9.0.0*%
%TF.CreationDate,2025-02-27T14:40:57-05:00*%
%TF.ProjectId,pcb1prototipo,70636231-7072-46f7-946f-7469706f2e6b,rev?*%
%TF.SameCoordinates,Original*%
%TF.FileFunction,Soldermask,Bot*%
%TF.FilePolarity,Negative*%
%FSLAX46Y46*%
G04 Gerber Fmt 4.6, Leading zero omitted, Abs format (unit mm)*
G04 Created by KiCad (PCBNEW 9.0.0) date 2025-02-27 14:40:57*
%MOMM*%
%LPD*%
G01*
G04 APERTURE LIST*
G04 Aperture macros list*
%AMRoundRect*
0 Rectangle with rounded corners*
0 $1 Rounding radius*
0 $2 $3 $4 $5 $6 $7 $8 $9 X,Y pos of 4 corners*
0 Add a 4 corners polygon primitive as box body*
4,1,4,$2,$3,$4,$5,$6,$7,$8,$9,$2,$3,0*
0 Add four circle primitives for the rounded corners*
1,1,$1+$1,$2,$3*
1,1,$1+$1,$4,$5*
1,1,$1+$1,$6,$7*
1,1,$1+$1,$8,$9*
0 Add four rect primitives between the rounded corners*
20,1,$1+$1,$2,$3,$4,$5,0*
20,1,$1+$1,$4,$5,$6,$7,0*
20,1,$1+$1,$6,$7,$8,$9,0*
20,1,$1+$1,$8,$9,$2,$3,0*%
G04 Aperture macros list end*
%ADD10C,3.200000*%
%ADD11R,1.700000X1.700000*%
%ADD12O,1.700000X1.700000*%
%ADD13C,1.408000*%
%ADD14R,1.408000X1.408000*%
%ADD15O,1.600000X1.600000*%
%ADD16C,1.600000*%
%ADD17R,3.500000X3.500000*%
%ADD18RoundRect,0.750000X-0.750000X-1.000000X0.750000X-1.000000X0.750000X1.000000X-0.750000X1.000000X0*%
%ADD19RoundRect,0.875000X-0.875000X-0.875000X0.875000X-0.875000X0.875000X0.875000X-0.875000X0.875000X0*%
%ADD20C,3.000000*%
%ADD21C,2.500000*%
%ADD22R,1.050000X1.500000*%
%ADD23O,1.050000X1.500000*%
%ADD24R,3.000000X3.000000*%
G04 APERTURE END LIST*
D10*
%TO.C,REF\u002A\u002A*%
X155000000Y-41000000D03*
%TD*%
D11*
%TO.C,A3*%
X82000000Y-57000000D03*
D12*
X82000000Y-49380000D03*
X82000000Y-51920000D03*
X82000000Y-54460000D03*
%TD*%
D13*
%TO.C,U2*%
X98500000Y-72520000D03*
X123900000Y-42040000D03*
X123900000Y-85220000D03*
X98500000Y-85220000D03*
X123900000Y-82680000D03*
X98500000Y-82680000D03*
X123900000Y-80140000D03*
X98500000Y-80140000D03*
X123900000Y-77600000D03*
X98500000Y-77600000D03*
X123900000Y-75060000D03*
X98500000Y-75060000D03*
X123900000Y-72520000D03*
X123900000Y-69980000D03*
X98500000Y-69980000D03*
X123900000Y-67440000D03*
X98500000Y-67440000D03*
X123900000Y-64900000D03*
X98500000Y-64900000D03*
X123900000Y-62360000D03*
X98500000Y-62360000D03*
X123900000Y-59820000D03*
X98500000Y-59820000D03*
X123900000Y-57280000D03*
X98500000Y-57280000D03*
X123900000Y-54740000D03*
X98500000Y-54740000D03*
X123900000Y-52200000D03*
X98500000Y-52200000D03*
X123900000Y-49660000D03*
X98500000Y-49660000D03*
X123900000Y-47120000D03*
X98500000Y-47120000D03*
X123900000Y-44580000D03*
X98500000Y-44580000D03*
X98500000Y-42040000D03*
X123900000Y-39500000D03*
D14*
X98500000Y-39500000D03*
%TD*%
D15*
%TO.C,R1*%
X131000000Y-91350000D03*
D16*
X131000000Y-78650000D03*
%TD*%
D11*
%TO.C,A4*%
X82000000Y-64880000D03*
D12*
X82000000Y-72500000D03*
X82000000Y-69960000D03*
X82000000Y-67420000D03*
%TD*%
D11*
%TO.C,B1*%
X89745000Y-83500000D03*
D12*
X89745000Y-88580000D03*
X89745000Y-86040000D03*
%TD*%
D10*
%TO.C,REF\u002A\u002A*%
X155000000Y-121000000D03*
%TD*%
%TO.C,REF\u002A\u002A*%
X76000000Y-121000000D03*
%TD*%
D17*
%TO.C,J2*%
X79500000Y-101300000D03*
D18*
X73500000Y-101300000D03*
D19*
X76500000Y-106000000D03*
%TD*%
D11*
%TO.C,A1*%
X136475000Y-52300000D03*
D12*
X136475000Y-49760000D03*
X136475000Y-47220000D03*
X136475000Y-44680000D03*
%TD*%
D20*
%TO.C,K1*%
X126800000Y-107000000D03*
D21*
X128750000Y-113050000D03*
D20*
X140950000Y-113050000D03*
X141000000Y-101000000D03*
D21*
X128750000Y-101050000D03*
%TD*%
D11*
%TO.C,A2*%
X145000000Y-71380000D03*
D12*
X145000000Y-73920000D03*
X145000000Y-76460000D03*
X145000000Y-79000000D03*
%TD*%
D22*
%TO.C,Q1*%
X116100000Y-103800000D03*
D23*
X117370000Y-103800000D03*
X118640000Y-103800000D03*
%TD*%
D10*
%TO.C,REF\u002A\u002A*%
X75000000Y-41000000D03*
%TD*%
D24*
%TO.C,J1*%
X159350000Y-104350000D03*
D20*
X159350000Y-109430000D03*
%TD*%
M02*
