%TF.GenerationSoftware,KiCad,Pcbnew,9.0.0*%
%TF.CreationDate,2025-02-27T14:40:57-05:00*%
%TF.ProjectId,pcb1prototipo,70636231-7072-46f7-946f-7469706f2e6b,rev?*%
%TF.SameCoordinates,Original*%
%TF.FileFunction,Copper,L2,Bot*%
%TF.FilePolarity,Positive*%
%FSLAX46Y46*%
G04 Gerber Fmt 4.6, Leading zero omitted, Abs format (unit mm)*
G04 Created by KiCad (PCBNEW 9.0.0) date 2025-02-27 14:40:57*
%MOMM*%
%LPD*%
G01*
G04 APERTURE LIST*
G04 Aperture macros list*
%AMRoundRect*
0 Rectangle with rounded corners*
0 $1 Rounding radius*
0 $2 $3 $4 $5 $6 $7 $8 $9 X,Y pos of 4 corners*
0 Add a 4 corners polygon primitive as box body*
4,1,4,$2,$3,$4,$5,$6,$7,$8,$9,$2,$3,0*
0 Add four circle primitives for the rounded corners*
1,1,$1+$1,$2,$3*
1,1,$1+$1,$4,$5*
1,1,$1+$1,$6,$7*
1,1,$1+$1,$8,$9*
0 Add four rect primitives between the rounded corners*
20,1,$1+$1,$2,$3,$4,$5,0*
20,1,$1+$1,$4,$5,$6,$7,0*
20,1,$1+$1,$6,$7,$8,$9,0*
20,1,$1+$1,$8,$9,$2,$3,0*%
G04 Aperture macros list end*
%TA.AperFunction,ComponentPad*%
%ADD10R,1.700000X1.700000*%
%TD*%
%TA.AperFunction,ComponentPad*%
%ADD11O,1.700000X1.700000*%
%TD*%
%TA.AperFunction,ComponentPad*%
%ADD12C,1.408000*%
%TD*%
%TA.AperFunction,ComponentPad*%
%ADD13R,1.408000X1.408000*%
%TD*%
%TA.AperFunction,ComponentPad*%
%ADD14O,1.600000X1.600000*%
%TD*%
%TA.AperFunction,ComponentPad*%
%ADD15C,1.600000*%
%TD*%
%TA.AperFunction,ComponentPad*%
%ADD16R,3.500000X3.500000*%
%TD*%
%TA.AperFunction,ComponentPad*%
%ADD17RoundRect,0.750000X-0.750000X-1.000000X0.750000X-1.000000X0.750000X1.000000X-0.750000X1.000000X0*%
%TD*%
%TA.AperFunction,ComponentPad*%
%ADD18RoundRect,0.875000X-0.875000X-0.875000X0.875000X-0.875000X0.875000X0.875000X-0.875000X0.875000X0*%
%TD*%
%TA.AperFunction,ComponentPad*%
%ADD19C,3.000000*%
%TD*%
%TA.AperFunction,ComponentPad*%
%ADD20C,2.500000*%
%TD*%
%TA.AperFunction,ComponentPad*%
%ADD21R,1.050000X1.500000*%
%TD*%
%TA.AperFunction,ComponentPad*%
%ADD22O,1.050000X1.500000*%
%TD*%
%TA.AperFunction,ComponentPad*%
%ADD23R,3.000000X3.000000*%
%TD*%
%TA.AperFunction,ViaPad*%
%ADD24C,1.100000*%
%TD*%
%TA.AperFunction,Conductor*%
%ADD25C,1.000000*%
%TD*%
%TA.AperFunction,Conductor*%
%ADD26C,0.600000*%
%TD*%
%TA.AperFunction,Conductor*%
%ADD27C,2.000000*%
%TD*%
G04 APERTURE END LIST*
D10*
%TO.P,A3,1,Pin_1*%
%TO.N,GND*%
X82000000Y-57000000D03*
D11*
%TO.P,A3,4,Pin_4*%
%TO.N,+5V*%
X82000000Y-49380000D03*
%TO.P,A3,3,Pin_3*%
%TO.N,/TRIGER3*%
X82000000Y-51920000D03*
%TO.P,A3,2,Pin_2*%
%TO.N,/ECHO3*%
X82000000Y-54460000D03*
%TD*%
D12*
%TO.P,U2,J2_14,GND_J2_14*%
%TO.N,GND*%
X98500000Y-72520000D03*
%TO.P,U2,J3_2,IO23*%
%TO.N,unconnected-(U2-IO23-PadJ3_2)*%
X123900000Y-42040000D03*
%TO.P,U2,J3_19,CLK*%
%TO.N,unconnected-(U2-CLK-PadJ3_19)*%
X123900000Y-85220000D03*
%TO.P,U2,J2_19,EXT_5V*%
%TO.N,+5V*%
X98500000Y-85220000D03*
%TO.P,U2,J3_18,SD0*%
%TO.N,unconnected-(U2-SD0-PadJ3_18)*%
X123900000Y-82680000D03*
%TO.P,U2,J2_18,CMD*%
%TO.N,unconnected-(U2-CMD-PadJ2_18)*%
X98500000Y-82680000D03*
%TO.P,U2,J3_17,SD1*%
%TO.N,unconnected-(U2-SD1-PadJ3_17)*%
X123900000Y-80140000D03*
%TO.P,U2,J2_17,SD3*%
%TO.N,unconnected-(U2-SD3-PadJ2_17)*%
X98500000Y-80140000D03*
%TO.P,U2,J3_16,IO15*%
%TO.N,unconnected-(U2-IO15-PadJ3_16)*%
X123900000Y-77600000D03*
%TO.P,U2,J2_16,SD2*%
%TO.N,unconnected-(U2-SD2-PadJ2_16)*%
X98500000Y-77600000D03*
%TO.P,U2,J3_15,IO2*%
%TO.N,Net-(U2-IO2)*%
X123900000Y-75060000D03*
%TO.P,U2,J2_15,IO13*%
%TO.N,/DHT*%
X98500000Y-75060000D03*
%TO.P,U2,J3_14,IO0*%
%TO.N,unconnected-(U2-IO0-PadJ3_14)*%
X123900000Y-72520000D03*
%TO.P,U2,J3_13,IO4*%
%TO.N,/TRIGER2*%
X123900000Y-69980000D03*
%TO.P,U2,J2_13,IO12*%
%TO.N,unconnected-(U2-IO12-PadJ2_13)*%
X98500000Y-69980000D03*
%TO.P,U2,J3_12,IO16*%
%TO.N,/ECHO2*%
X123900000Y-67440000D03*
%TO.P,U2,J2_12,IO14*%
%TO.N,unconnected-(U2-IO14-PadJ2_12)*%
X98500000Y-67440000D03*
%TO.P,U2,J3_11,IO17*%
%TO.N,unconnected-(U2-IO17-PadJ3_11)*%
X123900000Y-64900000D03*
%TO.P,U2,J2_11,IO27*%
%TO.N,/TRIGER4*%
X98500000Y-64900000D03*
%TO.P,U2,J3_10,IO5*%
%TO.N,unconnected-(U2-IO5-PadJ3_10)*%
X123900000Y-62360000D03*
%TO.P,U2,J2_10,IO26*%
%TO.N,/ECHO4*%
X98500000Y-62360000D03*
%TO.P,U2,J3_9,IO18*%
%TO.N,/ECHO1*%
X123900000Y-59820000D03*
%TO.P,U2,J2_9,IO25*%
%TO.N,unconnected-(U2-IO25-PadJ2_9)*%
X98500000Y-59820000D03*
%TO.P,U2,J3_8,IO19*%
%TO.N,/TRIGER1*%
X123900000Y-57280000D03*
%TO.P,U2,J2_8,IO33*%
%TO.N,/ECHO3*%
X98500000Y-57280000D03*
%TO.P,U2,J3_7,GND_J3_7*%
%TO.N,unconnected-(U2-GND_J3_7-PadJ3_7)*%
X123900000Y-54740000D03*
%TO.P,U2,J2_7,IO32*%
%TO.N,/TRIGER3*%
X98500000Y-54740000D03*
%TO.P,U2,J3_6,IO21*%
%TO.N,unconnected-(U2-IO21-PadJ3_6)*%
X123900000Y-52200000D03*
%TO.P,U2,J2_6,IO35*%
%TO.N,unconnected-(U2-IO35-PadJ2_6)*%
X98500000Y-52200000D03*
%TO.P,U2,J3_5,RXD0*%
%TO.N,unconnected-(U2-RXD0-PadJ3_5)*%
X123900000Y-49660000D03*
%TO.P,U2,J2_5,IO34*%
%TO.N,unconnected-(U2-IO34-PadJ2_5)*%
X98500000Y-49660000D03*
%TO.P,U2,J3_4,TXD0*%
%TO.N,unconnected-(U2-TXD0-PadJ3_4)*%
X123900000Y-47120000D03*
%TO.P,U2,J2_4,SENSOR_VN*%
%TO.N,unconnected-(U2-SENSOR_VN-PadJ2_4)*%
X98500000Y-47120000D03*
%TO.P,U2,J3_3,IO22*%
%TO.N,unconnected-(U2-IO22-PadJ3_3)*%
X123900000Y-44580000D03*
%TO.P,U2,J2_3,SENSOR_VP*%
%TO.N,unconnected-(U2-SENSOR_VP-PadJ2_3)*%
X98500000Y-44580000D03*
%TO.P,U2,J2_2,EN*%
%TO.N,unconnected-(U2-EN-PadJ2_2)*%
X98500000Y-42040000D03*
%TO.P,U2,J3_1,GND_J3_1*%
%TO.N,unconnected-(U2-GND_J3_1-PadJ3_1)*%
X123900000Y-39500000D03*
D13*
%TO.P,U2,J2_1,3V3*%
%TO.N,unconnected-(U2-3V3-PadJ2_1)*%
X98500000Y-39500000D03*
%TD*%
D14*
%TO.P,R1,2*%
%TO.N,/RELatSp*%
X131000000Y-91350000D03*
D15*
%TO.P,R1,1*%
%TO.N,Net-(U2-IO2)*%
X131000000Y-78650000D03*
%TD*%
D10*
%TO.P,A4,1,Pin_1*%
%TO.N,GND*%
X82000000Y-64880000D03*
D11*
%TO.P,A4,4,Pin_4*%
%TO.N,+5V*%
X82000000Y-72500000D03*
%TO.P,A4,3,Pin_3*%
%TO.N,/TRIGER4*%
X82000000Y-69960000D03*
%TO.P,A4,2,Pin_2*%
%TO.N,/ECHO4*%
X82000000Y-67420000D03*
%TD*%
D10*
%TO.P,B1,1,Pin_1*%
%TO.N,GND*%
X89745000Y-83500000D03*
D11*
%TO.P,B1,3,Pin_3*%
%TO.N,+5V*%
X89745000Y-88580000D03*
%TO.P,B1,2,Pin_2*%
%TO.N,/DHT*%
X89745000Y-86040000D03*
%TD*%
D16*
%TO.P,J2,1*%
%TO.N,+5V*%
X79500000Y-101300000D03*
D17*
%TO.P,J2,2*%
%TO.N,GND*%
X73500000Y-101300000D03*
D18*
%TO.P,J2,3*%
X76500000Y-106000000D03*
%TD*%
D10*
%TO.P,A1,1,Pin_1*%
%TO.N,GND*%
X136475000Y-52300000D03*
D11*
%TO.P,A1,2,Pin_2*%
%TO.N,/ECHO1*%
X136475000Y-49760000D03*
%TO.P,A1,3,Pin_3*%
%TO.N,/TRIGER1*%
X136475000Y-47220000D03*
%TO.P,A1,4,Pin_4*%
%TO.N,+5V*%
X136475000Y-44680000D03*
%TD*%
D19*
%TO.P,K1,1*%
%TO.N,Net-(J1-Pin_1)*%
X126800000Y-107000000D03*
D20*
%TO.P,K1,2*%
%TO.N,Net-(Q1-C)*%
X128750000Y-113050000D03*
D19*
%TO.P,K1,3*%
%TO.N,Net-(J1-Pin_2)*%
X140950000Y-113050000D03*
%TO.P,K1,4*%
%TO.N,unconnected-(K1-Pad4)*%
X141000000Y-101000000D03*
D20*
%TO.P,K1,5*%
%TO.N,+5V*%
X128750000Y-101050000D03*
%TD*%
D10*
%TO.P,A2,1,Pin_1*%
%TO.N,GND*%
X145000000Y-71380000D03*
D11*
%TO.P,A2,2,Pin_2*%
%TO.N,/ECHO2*%
X145000000Y-73920000D03*
%TO.P,A2,3,Pin_3*%
%TO.N,/TRIGER2*%
X145000000Y-76460000D03*
%TO.P,A2,4,Pin_4*%
%TO.N,+5V*%
X145000000Y-79000000D03*
%TD*%
D21*
%TO.P,Q1,1,E*%
%TO.N,GND*%
X116100000Y-103800000D03*
D22*
%TO.P,Q1,2,B*%
%TO.N,/RELatSp*%
X117370000Y-103800000D03*
%TO.P,Q1,3,C*%
%TO.N,Net-(Q1-C)*%
X118640000Y-103800000D03*
%TD*%
D23*
%TO.P,J1,1,Pin_1*%
%TO.N,Net-(J1-Pin_1)*%
X159350000Y-104350000D03*
D19*
%TO.P,J1,2,Pin_2*%
%TO.N,Net-(J1-Pin_2)*%
X159350000Y-109430000D03*
%TD*%
D24*
%TO.N,GND*%
X153000000Y-72000000D03*
X114000000Y-93000000D03*
X78000000Y-79000000D03*
X87000000Y-79000000D03*
X89000000Y-64500000D03*
X89000000Y-73000000D03*
%TD*%
D25*
%TO.N,/ECHO1*%
X133960000Y-49760000D02*
X136475000Y-49760000D01*
X123900000Y-59820000D02*
X133960000Y-49760000D01*
%TO.N,/TRIGER1*%
X123900000Y-57280000D02*
X133960000Y-47220000D01*
X133960000Y-47220000D02*
X136475000Y-47220000D01*
%TO.N,/ECHO2*%
X132690000Y-67440000D02*
X139170000Y-73920000D01*
X123900000Y-67440000D02*
X132690000Y-67440000D01*
X139170000Y-73920000D02*
X145000000Y-73920000D01*
%TO.N,/TRIGER2*%
X138500000Y-76500000D02*
X131980000Y-69980000D01*
X138540000Y-76460000D02*
X138500000Y-76500000D01*
X131980000Y-69980000D02*
X123900000Y-69980000D01*
X145000000Y-76460000D02*
X138540000Y-76460000D01*
D26*
%TO.N,Net-(U2-IO2)*%
X130940000Y-75060000D02*
X123900000Y-75060000D01*
X131000000Y-78650000D02*
X131000000Y-75000000D01*
D25*
%TO.N,+5V*%
X85780000Y-101300000D02*
X98500000Y-88580000D01*
X79500000Y-101300000D02*
X85780000Y-101300000D01*
%TO.N,/TRIGER4*%
X93440000Y-69960000D02*
X98500000Y-64900000D01*
X82000000Y-69960000D02*
X93440000Y-69960000D01*
%TO.N,/ECHO4*%
X82000000Y-67420000D02*
X93440000Y-67420000D01*
X93440000Y-67420000D02*
X98500000Y-62360000D01*
%TO.N,/TRIGER3*%
X95680000Y-51920000D02*
X98500000Y-54740000D01*
X82000000Y-51920000D02*
X95680000Y-51920000D01*
%TO.N,/ECHO3*%
X95680000Y-54460000D02*
X98500000Y-57280000D01*
X82000000Y-54460000D02*
X95680000Y-54460000D01*
D26*
%TO.N,/DHT*%
X95000000Y-77500000D02*
X97440000Y-75060000D01*
X97440000Y-75060000D02*
X98500000Y-75060000D01*
X95000000Y-80785000D02*
X95000000Y-77500000D01*
X89745000Y-86040000D02*
X95000000Y-80785000D01*
D25*
%TO.N,+5V*%
X98500000Y-88580000D02*
X98500000Y-85220000D01*
X98500000Y-88580000D02*
X136720000Y-88580000D01*
X89745000Y-88580000D02*
X98500000Y-88580000D01*
X136800000Y-88500000D02*
X136800000Y-87540000D01*
X136720000Y-88580000D02*
X136800000Y-88500000D01*
X86080000Y-88580000D02*
X89745000Y-88580000D01*
X82000000Y-84500000D02*
X86080000Y-88580000D01*
X82000000Y-72500000D02*
X82000000Y-84500000D01*
X76000000Y-72500000D02*
X82000000Y-72500000D01*
X74000000Y-72000000D02*
X75500000Y-72000000D01*
X74000000Y-57380000D02*
X74000000Y-72000000D01*
X75500000Y-72000000D02*
X76000000Y-72500000D01*
X82000000Y-49380000D02*
X74000000Y-57380000D01*
D26*
%TO.N,/TRIGER1*%
X124460000Y-57485000D02*
X124200000Y-57225000D01*
%TO.N,/RELatSp*%
X117370000Y-95180000D02*
X117370000Y-103800000D01*
D25*
%TO.N,unconnected-(U2-TXD0-PadJ3_4)*%
X124355000Y-47220000D02*
X124200000Y-47065000D01*
D26*
X124400000Y-47265000D02*
X124200000Y-47065000D01*
D25*
%TO.N,+5V*%
X145220000Y-79120000D02*
X151000000Y-79120000D01*
X163000000Y-60500000D02*
X163000000Y-72000000D01*
X161880000Y-72120000D02*
X158000000Y-72120000D01*
X147180000Y-44680000D02*
X163000000Y-60500000D01*
X145220000Y-79120000D02*
X136800000Y-87540000D01*
X151000000Y-79120000D02*
X158000000Y-72120000D01*
X163000000Y-72000000D02*
X162000000Y-72000000D01*
X136475000Y-44680000D02*
X147180000Y-44680000D01*
X162000000Y-72000000D02*
X161880000Y-72120000D01*
D26*
%TO.N,/ECHO1*%
X136045000Y-49605000D02*
X136245000Y-49805000D01*
D25*
X136245000Y-50040000D02*
X135960000Y-50040000D01*
X136320000Y-49605000D02*
X136475000Y-49760000D01*
%TO.N,/TRIGER2*%
X145220000Y-77040000D02*
X144936000Y-77040000D01*
D27*
%TO.N,Net-(J1-Pin_2)*%
X140950000Y-113050000D02*
X155730000Y-113050000D01*
X155730000Y-113050000D02*
X159350000Y-109430000D01*
%TO.N,Net-(J1-Pin_1)*%
X126800000Y-107000000D02*
X146050000Y-107000000D01*
X146050000Y-107000000D02*
X148700000Y-104350000D01*
X148700000Y-104350000D02*
X159350000Y-104350000D01*
D26*
%TO.N,Net-(Q1-C)*%
X122500000Y-113050000D02*
X128750000Y-113050000D01*
X118640000Y-109190000D02*
X122500000Y-113050000D01*
X118640000Y-103800000D02*
X118640000Y-109190000D01*
%TO.N,/RELatSp*%
X121200000Y-91350000D02*
X117370000Y-95180000D01*
X131000000Y-91350000D02*
X121200000Y-91350000D01*
D25*
%TO.N,+5V*%
X136800000Y-90200000D02*
X136800000Y-88500000D01*
X128750000Y-98250000D02*
X136800000Y-90200000D01*
X128750000Y-101050000D02*
X128750000Y-98250000D01*
%TD*%
%TA.AperFunction,Conductor*%
%TO.N,GND*%
G36*
X77365649Y-51679685D02*
G01*
X77411404Y-51732489D01*
X77421348Y-51801647D01*
X77392323Y-51865203D01*
X77386291Y-51871681D01*
X72855484Y-56402488D01*
X72716657Y-56593565D01*
X72609755Y-56803374D01*
X72609753Y-56803378D01*
X72609433Y-56804004D01*
X72609432Y-56804007D01*
X72536446Y-57028631D01*
X72499500Y-57261902D01*
X72499500Y-72118097D01*
X72536446Y-72351368D01*
X72609433Y-72575996D01*
X72716657Y-72786433D01*
X72855483Y-72977510D01*
X73022490Y-73144517D01*
X73213567Y-73283343D01*
X73293155Y-73323895D01*
X73424003Y-73390566D01*
X73424005Y-73390566D01*
X73424008Y-73390568D01*
X73544412Y-73429689D01*
X73648631Y-73463553D01*
X73881903Y-73500500D01*
X73881908Y-73500500D01*
X74118092Y-73500500D01*
X74827110Y-73500500D01*
X74894149Y-73520185D01*
X74914791Y-73536819D01*
X75022491Y-73644519D01*
X75022496Y-73644523D01*
X75172396Y-73753431D01*
X75213567Y-73783343D01*
X75311680Y-73833334D01*
X75424003Y-73890566D01*
X75424005Y-73890566D01*
X75424008Y-73890568D01*
X75544412Y-73929689D01*
X75648631Y-73963553D01*
X75881903Y-74000500D01*
X75881908Y-74000500D01*
X76118092Y-74000500D01*
X80375500Y-74000500D01*
X80442539Y-74020185D01*
X80488294Y-74072989D01*
X80499500Y-74124500D01*
X80499500Y-84618097D01*
X80536446Y-84851368D01*
X80609433Y-85075996D01*
X80682699Y-85219788D01*
X80716657Y-85286434D01*
X80855483Y-85477510D01*
X85102490Y-89724517D01*
X85229874Y-89817067D01*
X85293567Y-89863344D01*
X85378113Y-89906421D01*
X85462660Y-89949500D01*
X85504003Y-89970566D01*
X85504005Y-89970566D01*
X85504008Y-89970568D01*
X85624412Y-90009689D01*
X85728631Y-90043553D01*
X85961903Y-90080500D01*
X85961908Y-90080500D01*
X88618618Y-90080500D01*
X88685657Y-90100185D01*
X88694104Y-90106124D01*
X88714711Y-90121936D01*
X88924784Y-90243222D01*
X88924785Y-90243222D01*
X88924788Y-90243224D01*
X89148900Y-90336054D01*
X89383211Y-90398838D01*
X89563586Y-90422584D01*
X89623711Y-90430500D01*
X89623712Y-90430500D01*
X89866289Y-90430500D01*
X89914388Y-90424167D01*
X90106789Y-90398838D01*
X90341100Y-90336054D01*
X90565212Y-90243224D01*
X90775289Y-90121936D01*
X90795896Y-90106124D01*
X90861065Y-90080930D01*
X90871382Y-90080500D01*
X94578110Y-90080500D01*
X94645149Y-90100185D01*
X94690904Y-90152989D01*
X94700848Y-90222147D01*
X94671823Y-90285703D01*
X94665791Y-90292181D01*
X85194792Y-99763181D01*
X85133469Y-99796666D01*
X85107111Y-99799500D01*
X82374499Y-99799500D01*
X82307460Y-99779815D01*
X82261705Y-99727011D01*
X82250499Y-99675500D01*
X82250499Y-99491971D01*
X82250499Y-99491964D01*
X82239886Y-99372582D01*
X82183909Y-99176951D01*
X82089698Y-98996593D01*
X82037684Y-98932803D01*
X81961109Y-98838890D01*
X81803409Y-98710304D01*
X81803410Y-98710304D01*
X81803407Y-98710302D01*
X81623049Y-98616091D01*
X81623048Y-98616090D01*
X81623045Y-98616089D01*
X81505829Y-98582550D01*
X81427418Y-98560114D01*
X81427415Y-98560113D01*
X81427413Y-98560113D01*
X81361102Y-98554217D01*
X81308037Y-98549500D01*
X81308032Y-98549500D01*
X77691971Y-98549500D01*
X77691965Y-98549500D01*
X77691964Y-98549501D01*
X77680316Y-98550536D01*
X77572584Y-98560113D01*
X77376954Y-98616089D01*
X77286772Y-98663196D01*
X77196593Y-98710302D01*
X77196591Y-98710303D01*
X77196590Y-98710304D01*
X77038890Y-98838890D01*
X76910304Y-98996590D01*
X76816089Y-99176954D01*
X76760114Y-99372583D01*
X76760113Y-99372586D01*
X76749500Y-99491966D01*
X76749500Y-103108028D01*
X76749501Y-103108031D01*
X76749501Y-103108036D01*
X76751571Y-103131330D01*
X76760113Y-103227415D01*
X76816089Y-103423045D01*
X76816090Y-103423048D01*
X76816091Y-103423049D01*
X76892115Y-103568590D01*
X76905706Y-103637123D01*
X76880087Y-103702127D01*
X76823392Y-103742960D01*
X76782206Y-103750000D01*
X76750000Y-103750000D01*
X76750000Y-105500000D01*
X76250000Y-105500000D01*
X76250000Y-103750000D01*
X75531423Y-103750000D01*
X75531411Y-103750001D01*
X75478808Y-103752794D01*
X75249012Y-103797237D01*
X75030024Y-103879879D01*
X74828158Y-103998339D01*
X74828151Y-103998344D01*
X74649213Y-104149211D01*
X74649211Y-104149213D01*
X74498344Y-104328151D01*
X74498339Y-104328158D01*
X74379879Y-104530024D01*
X74297237Y-104749012D01*
X74252794Y-104978808D01*
X74252794Y-104978809D01*
X74250001Y-105031382D01*
X74250000Y-105031421D01*
X74250000Y-105750000D01*
X75066988Y-105750000D01*
X75034075Y-105807007D01*
X75000000Y-105934174D01*
X75000000Y-106065826D01*
X75034075Y-106192993D01*
X75066988Y-106250000D01*
X74250001Y-106250000D01*
X74250001Y-106968588D01*
X74252794Y-107021191D01*
X74297237Y-107250987D01*
X74379879Y-107469975D01*
X74498339Y-107671841D01*
X74498344Y-107671848D01*
X74649211Y-107850786D01*
X74649213Y-107850788D01*
X74828151Y-108001655D01*
X74828158Y-108001660D01*
X75030024Y-108120120D01*
X75249012Y-108202762D01*
X75478809Y-108247205D01*
X75531382Y-108249998D01*
X75531421Y-108249999D01*
X76249999Y-108249999D01*
X76250000Y-108249998D01*
X76250000Y-106500000D01*
X76750000Y-106500000D01*
X76750000Y-108249999D01*
X77468576Y-108249999D01*
X77468588Y-108249998D01*
X77521191Y-108247205D01*
X77750987Y-108202762D01*
X77969975Y-108120120D01*
X78171841Y-108001660D01*
X78171848Y-108001655D01*
X78350786Y-107850788D01*
X78350788Y-107850786D01*
X78501655Y-107671848D01*
X78501660Y-107671841D01*
X78620120Y-107469975D01*
X78702762Y-107250987D01*
X78747205Y-107021191D01*
X78747205Y-107021190D01*
X78749998Y-106968617D01*
X78750000Y-106968578D01*
X78750000Y-106250000D01*
X77933012Y-106250000D01*
X77965925Y-106192993D01*
X78000000Y-106065826D01*
X78000000Y-105934174D01*
X77965925Y-105807007D01*
X77933012Y-105750000D01*
X78749999Y-105750000D01*
X78749999Y-105031423D01*
X78749998Y-105031411D01*
X78747205Y-104978808D01*
X78702762Y-104749012D01*
X78620120Y-104530024D01*
X78501660Y-104328158D01*
X78501655Y-104328151D01*
X78439497Y-104254428D01*
X78411333Y-104190487D01*
X78422210Y-104121469D01*
X78468674Y-104069288D01*
X78534295Y-104050499D01*
X81308036Y-104050499D01*
X81427418Y-104039886D01*
X81623049Y-103983909D01*
X81803407Y-103889698D01*
X81961109Y-103761109D01*
X82089698Y-103603407D01*
X82183909Y-103423049D01*
X82239886Y-103227418D01*
X82250500Y-103108037D01*
X82250500Y-102924500D01*
X82270185Y-102857461D01*
X82322989Y-102811706D01*
X82374500Y-102800500D01*
X85898097Y-102800500D01*
X86131368Y-102763553D01*
X86355992Y-102690568D01*
X86566434Y-102583343D01*
X86757510Y-102444517D01*
X99085209Y-90116819D01*
X99146532Y-90083334D01*
X99172890Y-90080500D01*
X120353141Y-90080500D01*
X120420180Y-90100185D01*
X120465935Y-90152989D01*
X120475879Y-90222147D01*
X120446854Y-90285703D01*
X120426028Y-90304816D01*
X120352781Y-90358034D01*
X120352779Y-90358036D01*
X120352778Y-90358036D01*
X116378036Y-94332778D01*
X116257713Y-94498388D01*
X116211246Y-94589585D01*
X116211245Y-94589584D01*
X116164779Y-94680781D01*
X116164779Y-94680782D01*
X116101523Y-94875461D01*
X116101523Y-94875464D01*
X116069500Y-95077648D01*
X116069500Y-102426000D01*
X116049815Y-102493039D01*
X115997011Y-102538794D01*
X115945500Y-102550000D01*
X115527155Y-102550000D01*
X115467627Y-102556401D01*
X115467620Y-102556403D01*
X115332913Y-102606645D01*
X115332906Y-102606649D01*
X115217812Y-102692809D01*
X115217809Y-102692812D01*
X115131649Y-102807906D01*
X115131645Y-102807913D01*
X115081403Y-102942620D01*
X115081401Y-102942627D01*
X115075000Y-103002155D01*
X115075000Y-103550000D01*
X115819670Y-103550000D01*
X115799925Y-103569745D01*
X115750556Y-103655255D01*
X115725000Y-103750630D01*
X115725000Y-103849370D01*
X115750556Y-103944745D01*
X115799925Y-104030255D01*
X115819670Y-104050000D01*
X115075000Y-104050000D01*
X115075000Y-104597844D01*
X115081401Y-104657372D01*
X115081403Y-104657379D01*
X115131645Y-104792086D01*
X115131649Y-104792093D01*
X115217809Y-104907187D01*
X115217812Y-104907190D01*
X115332906Y-104993350D01*
X115332913Y-104993354D01*
X115467620Y-105043596D01*
X115467627Y-105043598D01*
X115527155Y-105049999D01*
X115527172Y-105050000D01*
X115850000Y-105050000D01*
X115850000Y-104101806D01*
X115845957Y-104076287D01*
X115869745Y-104100075D01*
X115955255Y-104149444D01*
X116050630Y-104175000D01*
X116124419Y-104175000D01*
X116164781Y-104299223D01*
X116257713Y-104481610D01*
X116326319Y-104576038D01*
X116349798Y-104641843D01*
X116350000Y-104648922D01*
X116350000Y-105050000D01*
X116672828Y-105050000D01*
X116672844Y-105049999D01*
X116732377Y-105043597D01*
X116732382Y-105043596D01*
X116811282Y-105014168D01*
X116880973Y-105009183D01*
X116892934Y-105012418D01*
X117065462Y-105068476D01*
X117065463Y-105068476D01*
X117065466Y-105068477D01*
X117234900Y-105095313D01*
X117298032Y-105125241D01*
X117334964Y-105184552D01*
X117339500Y-105217785D01*
X117339500Y-109292351D01*
X117371522Y-109494534D01*
X117434781Y-109689223D01*
X117481246Y-109780414D01*
X117527713Y-109871611D01*
X117648034Y-110037219D01*
X117648036Y-110037221D01*
X121652786Y-114041971D01*
X121818385Y-114162284D01*
X121818387Y-114162285D01*
X121818390Y-114162287D01*
X121932296Y-114220325D01*
X121983091Y-114268298D01*
X122000000Y-114330809D01*
X122000000Y-129375500D01*
X121980315Y-129442539D01*
X121927511Y-129488294D01*
X121876000Y-129499500D01*
X65124500Y-129499500D01*
X65057461Y-129479815D01*
X65011706Y-129427011D01*
X65000500Y-129375500D01*
X65000500Y-124820000D01*
X72500000Y-124820000D01*
X79500000Y-124820000D01*
X79500000Y-117500000D01*
X72500000Y-117500000D01*
X72500000Y-124820000D01*
X65000500Y-124820000D01*
X65000500Y-100235803D01*
X71500000Y-100235803D01*
X71500000Y-101050000D01*
X73000000Y-101050000D01*
X73000000Y-101550000D01*
X71500001Y-101550000D01*
X71500001Y-102364197D01*
X71510400Y-102496332D01*
X71565377Y-102714519D01*
X71658428Y-102919374D01*
X71658431Y-102919380D01*
X71786559Y-103104323D01*
X71786569Y-103104335D01*
X71945664Y-103263430D01*
X71945676Y-103263440D01*
X72130619Y-103391568D01*
X72130625Y-103391571D01*
X72335480Y-103484622D01*
X72553667Y-103539599D01*
X72685810Y-103549999D01*
X73249999Y-103549999D01*
X73250000Y-103549998D01*
X73250000Y-102733012D01*
X73307007Y-102765925D01*
X73434174Y-102800000D01*
X73565826Y-102800000D01*
X73692993Y-102765925D01*
X73750000Y-102733012D01*
X73750000Y-103549999D01*
X74314182Y-103549999D01*
X74314197Y-103549998D01*
X74446332Y-103539599D01*
X74664519Y-103484622D01*
X74869374Y-103391571D01*
X74869380Y-103391568D01*
X75054323Y-103263440D01*
X75054335Y-103263430D01*
X75213430Y-103104335D01*
X75213440Y-103104323D01*
X75341568Y-102919380D01*
X75341571Y-102919374D01*
X75434622Y-102714519D01*
X75489599Y-102496332D01*
X75499999Y-102364196D01*
X75500000Y-102364184D01*
X75500000Y-101550000D01*
X74000000Y-101550000D01*
X74000000Y-101050000D01*
X75499999Y-101050000D01*
X75499999Y-100235817D01*
X75499998Y-100235802D01*
X75489599Y-100103667D01*
X75434622Y-99885480D01*
X75341571Y-99680625D01*
X75341568Y-99680619D01*
X75213440Y-99495676D01*
X75213430Y-99495664D01*
X75054335Y-99336569D01*
X75054323Y-99336559D01*
X74869380Y-99208431D01*
X74869374Y-99208428D01*
X74664519Y-99115377D01*
X74446332Y-99060400D01*
X74314196Y-99050000D01*
X73750000Y-99050000D01*
X73750000Y-99866988D01*
X73692993Y-99834075D01*
X73565826Y-99800000D01*
X73434174Y-99800000D01*
X73307007Y-99834075D01*
X73250000Y-99866988D01*
X73250000Y-99050000D01*
X72685817Y-99050000D01*
X72685802Y-99050001D01*
X72553667Y-99060400D01*
X72335480Y-99115377D01*
X72130625Y-99208428D01*
X72130619Y-99208431D01*
X71945676Y-99336559D01*
X71945664Y-99336569D01*
X71786569Y-99495664D01*
X71786559Y-99495676D01*
X71658431Y-99680619D01*
X71658428Y-99680625D01*
X71565377Y-99885480D01*
X71510400Y-100103667D01*
X71500000Y-100235803D01*
X65000500Y-100235803D01*
X65000500Y-51784000D01*
X65020185Y-51716961D01*
X65072989Y-51671206D01*
X65124500Y-51660000D01*
X77298610Y-51660000D01*
X77365649Y-51679685D01*
G37*
%TD.AperFunction*%
%TA.AperFunction,Conductor*%
G36*
X97110461Y-68488966D02*
G01*
X97133897Y-68490642D01*
X97145248Y-68498336D01*
X97155239Y-68501027D01*
X97173649Y-68517585D01*
X97182426Y-68523534D01*
X97185837Y-68527296D01*
X97215740Y-68566266D01*
X97273933Y-68624459D01*
X97275974Y-68626710D01*
X97289934Y-68655544D01*
X97305277Y-68683642D01*
X97305053Y-68686770D01*
X97306421Y-68689596D01*
X97302577Y-68721394D01*
X97300293Y-68753334D01*
X97298350Y-68756355D01*
X97298036Y-68758961D01*
X97291959Y-68766301D01*
X97271792Y-68797681D01*
X97215740Y-68853733D01*
X97079718Y-69030998D01*
X96968002Y-69224497D01*
X96967998Y-69224507D01*
X96882495Y-69430928D01*
X96824665Y-69646756D01*
X96795500Y-69868273D01*
X96795500Y-70091726D01*
X96806176Y-70172812D01*
X96824665Y-70313245D01*
X96852766Y-70418118D01*
X96882495Y-70529071D01*
X96967998Y-70735492D01*
X96968002Y-70735502D01*
X97079718Y-70929001D01*
X97215740Y-71106266D01*
X97215748Y-71106275D01*
X97373725Y-71264252D01*
X97373733Y-71264259D01*
X97550998Y-71400281D01*
X97744497Y-71511997D01*
X97744512Y-71512004D01*
X97794171Y-71532573D01*
X97894220Y-71574014D01*
X97934447Y-71600893D01*
X98411415Y-72077861D01*
X98326306Y-72100667D01*
X98223694Y-72159910D01*
X98139910Y-72243694D01*
X98080667Y-72346306D01*
X98057861Y-72431414D01*
X97489253Y-71862806D01*
X97470245Y-71888969D01*
X97384210Y-72057821D01*
X97325645Y-72238062D01*
X97296000Y-72425237D01*
X97296000Y-72614762D01*
X97325645Y-72801937D01*
X97384210Y-72982178D01*
X97470246Y-73151033D01*
X97489253Y-73177192D01*
X97489253Y-73177193D01*
X98057861Y-72608584D01*
X98080667Y-72693694D01*
X98139910Y-72796306D01*
X98223694Y-72880090D01*
X98326306Y-72939333D01*
X98411414Y-72962138D01*
X97934447Y-73439105D01*
X97894219Y-73465985D01*
X97744507Y-73527997D01*
X97744497Y-73528002D01*
X97550999Y-73639718D01*
X97428291Y-73733876D01*
X97363122Y-73759070D01*
X97352805Y-73759500D01*
X97337648Y-73759500D01*
X97311497Y-73763642D01*
X97135468Y-73791522D01*
X97135467Y-73791522D01*
X97049604Y-73819421D01*
X96940782Y-73854779D01*
X96940781Y-73854779D01*
X96849584Y-73901245D01*
X96849585Y-73901246D01*
X96758388Y-73947713D01*
X96592778Y-74068036D01*
X94008036Y-76652778D01*
X94008031Y-76652784D01*
X93887716Y-76818384D01*
X93887709Y-76818396D01*
X93870911Y-76851366D01*
X93870910Y-76851367D01*
X93794781Y-77000779D01*
X93794780Y-77000781D01*
X93763151Y-77098123D01*
X93763151Y-77098124D01*
X93763150Y-77098123D01*
X93736172Y-77181158D01*
X93736171Y-77181163D01*
X93731522Y-77195467D01*
X93731522Y-77195469D01*
X93699500Y-77397648D01*
X93699500Y-80194953D01*
X93679815Y-80261992D01*
X93663181Y-80282634D01*
X91302402Y-82643412D01*
X91241079Y-82676897D01*
X91171387Y-82671913D01*
X91115454Y-82630041D01*
X91091431Y-82568985D01*
X91088596Y-82542620D01*
X91038354Y-82407913D01*
X91038350Y-82407906D01*
X90952190Y-82292812D01*
X90952187Y-82292809D01*
X90837093Y-82206649D01*
X90837086Y-82206645D01*
X90702379Y-82156403D01*
X90702372Y-82156401D01*
X90642844Y-82150000D01*
X89995000Y-82150000D01*
X89995000Y-83066988D01*
X89937993Y-83034075D01*
X89810826Y-83000000D01*
X89679174Y-83000000D01*
X89552007Y-83034075D01*
X89495000Y-83066988D01*
X89495000Y-82150000D01*
X88847155Y-82150000D01*
X88787627Y-82156401D01*
X88787620Y-82156403D01*
X88652913Y-82206645D01*
X88652906Y-82206649D01*
X88537812Y-82292809D01*
X88537809Y-82292812D01*
X88451649Y-82407906D01*
X88451645Y-82407913D01*
X88401403Y-82542620D01*
X88401401Y-82542627D01*
X88395000Y-82602155D01*
X88395000Y-83250000D01*
X89311988Y-83250000D01*
X89279075Y-83307007D01*
X89245000Y-83434174D01*
X89245000Y-83565826D01*
X89279075Y-83692993D01*
X89311988Y-83750000D01*
X88395000Y-83750000D01*
X88395000Y-84397844D01*
X88401401Y-84457372D01*
X88401403Y-84457379D01*
X88454746Y-84600399D01*
X88453217Y-84600969D01*
X88465899Y-84659262D01*
X88441484Y-84724727D01*
X88429897Y-84738099D01*
X88350732Y-84817264D01*
X88203067Y-85009706D01*
X88081777Y-85219785D01*
X88081773Y-85219794D01*
X87988947Y-85443895D01*
X87926161Y-85678214D01*
X87894500Y-85918711D01*
X87894500Y-86161288D01*
X87926161Y-86401785D01*
X87988947Y-86636104D01*
X88073014Y-86839059D01*
X88081776Y-86860212D01*
X88092199Y-86878266D01*
X88100995Y-86893500D01*
X88117468Y-86961400D01*
X88094616Y-87027427D01*
X88039695Y-87070617D01*
X87993608Y-87079500D01*
X86752889Y-87079500D01*
X86685850Y-87059815D01*
X86665208Y-87043181D01*
X83536819Y-83914792D01*
X83503334Y-83853469D01*
X83500500Y-83827111D01*
X83500500Y-73626381D01*
X83520185Y-73559342D01*
X83526126Y-73550893D01*
X83536925Y-73536819D01*
X83541936Y-73530289D01*
X83663224Y-73320212D01*
X83756054Y-73096100D01*
X83818838Y-72861789D01*
X83850500Y-72621288D01*
X83850500Y-72378712D01*
X83818838Y-72138211D01*
X83756054Y-71903900D01*
X83663224Y-71679788D01*
X83644004Y-71646499D01*
X83627532Y-71578600D01*
X83650384Y-71512573D01*
X83705305Y-71469383D01*
X83751392Y-71460500D01*
X93558097Y-71460500D01*
X93791368Y-71423553D01*
X94015992Y-71350568D01*
X94226434Y-71243343D01*
X94417510Y-71104517D01*
X97002884Y-68519141D01*
X97013487Y-68513352D01*
X97021194Y-68504043D01*
X97043584Y-68496917D01*
X97064205Y-68485658D01*
X97076257Y-68486519D01*
X97087774Y-68482855D01*
X97110461Y-68488966D01*
G37*
%TD.AperFunction*%
%TA.AperFunction,Conductor*%
G36*
X122209620Y-51589685D02*
G01*
X122255375Y-51642489D01*
X122265319Y-51711647D01*
X122262358Y-51726079D01*
X122242552Y-51800000D01*
X122224664Y-51866758D01*
X122195500Y-52088273D01*
X122195500Y-52311726D01*
X122202623Y-52365826D01*
X122224665Y-52533245D01*
X122244430Y-52607007D01*
X122282495Y-52749071D01*
X122367998Y-52955492D01*
X122368002Y-52955502D01*
X122479718Y-53149001D01*
X122615740Y-53326266D01*
X122615748Y-53326275D01*
X122671792Y-53382319D01*
X122705277Y-53443642D01*
X122700293Y-53513334D01*
X122671792Y-53557681D01*
X122615740Y-53613733D01*
X122479718Y-53790998D01*
X122368002Y-53984497D01*
X122367998Y-53984507D01*
X122282495Y-54190928D01*
X122224665Y-54406756D01*
X122195500Y-54628273D01*
X122195500Y-54851726D01*
X122218183Y-55024017D01*
X122224665Y-55073245D01*
X122253580Y-55181157D01*
X122282495Y-55289071D01*
X122367998Y-55495492D01*
X122368002Y-55495502D01*
X122479718Y-55689001D01*
X122615740Y-55866266D01*
X122615748Y-55866275D01*
X122671792Y-55922319D01*
X122705277Y-55983642D01*
X122700293Y-56053334D01*
X122671792Y-56097681D01*
X122615740Y-56153733D01*
X122479718Y-56330998D01*
X122368002Y-56524497D01*
X122367998Y-56524507D01*
X122282495Y-56730928D01*
X122224665Y-56946756D01*
X122195500Y-57168273D01*
X122195500Y-57391726D01*
X122218183Y-57564017D01*
X122224665Y-57613245D01*
X122253580Y-57721157D01*
X122282495Y-57829071D01*
X122367998Y-58035492D01*
X122368002Y-58035502D01*
X122479718Y-58229001D01*
X122615740Y-58406266D01*
X122615748Y-58406275D01*
X122671792Y-58462319D01*
X122705277Y-58523642D01*
X122700293Y-58593334D01*
X122671792Y-58637681D01*
X122615740Y-58693733D01*
X122479718Y-58870998D01*
X122368002Y-59064497D01*
X122367998Y-59064507D01*
X122282495Y-59270928D01*
X122224665Y-59486756D01*
X122195500Y-59708273D01*
X122195500Y-59931726D01*
X122218183Y-60104017D01*
X122224665Y-60153245D01*
X122253580Y-60261157D01*
X122282495Y-60369071D01*
X122367998Y-60575492D01*
X122368002Y-60575502D01*
X122479718Y-60769001D01*
X122615740Y-60946266D01*
X122615748Y-60946275D01*
X122671792Y-61002319D01*
X122705277Y-61063642D01*
X122700293Y-61133334D01*
X122671792Y-61177681D01*
X122615740Y-61233733D01*
X122479718Y-61410998D01*
X122368002Y-61604497D01*
X122367998Y-61604507D01*
X122282495Y-61810928D01*
X122224665Y-62026756D01*
X122195500Y-62248273D01*
X122195500Y-62471726D01*
X122218183Y-62644017D01*
X122224665Y-62693245D01*
X122253580Y-62801157D01*
X122282495Y-62909071D01*
X122367998Y-63115492D01*
X122368002Y-63115502D01*
X122479718Y-63309001D01*
X122615740Y-63486266D01*
X122615748Y-63486275D01*
X122671792Y-63542319D01*
X122705277Y-63603642D01*
X122700293Y-63673334D01*
X122671792Y-63717681D01*
X122615740Y-63773733D01*
X122479718Y-63950998D01*
X122368002Y-64144497D01*
X122367998Y-64144507D01*
X122282495Y-64350928D01*
X122224665Y-64566756D01*
X122195500Y-64788273D01*
X122195500Y-65011726D01*
X122211072Y-65130000D01*
X122224665Y-65233245D01*
X122237220Y-65280099D01*
X122282495Y-65449071D01*
X122367998Y-65655492D01*
X122368002Y-65655502D01*
X122479718Y-65849001D01*
X122615740Y-66026266D01*
X122615748Y-66026275D01*
X122671792Y-66082319D01*
X122705277Y-66143642D01*
X122700293Y-66213334D01*
X122671792Y-66257681D01*
X122615740Y-66313733D01*
X122479718Y-66490998D01*
X122368002Y-66684497D01*
X122367998Y-66684507D01*
X122282495Y-66890928D01*
X122224665Y-67106756D01*
X122195500Y-67328273D01*
X122195500Y-67551726D01*
X122218183Y-67724017D01*
X122224665Y-67773245D01*
X122253580Y-67881157D01*
X122282495Y-67989071D01*
X122367998Y-68195492D01*
X122368002Y-68195502D01*
X122479718Y-68389001D01*
X122615740Y-68566266D01*
X122615748Y-68566275D01*
X122671792Y-68622319D01*
X122705277Y-68683642D01*
X122700293Y-68753334D01*
X122671792Y-68797681D01*
X122615740Y-68853733D01*
X122479718Y-69030998D01*
X122368002Y-69224497D01*
X122367998Y-69224507D01*
X122282495Y-69430928D01*
X122224665Y-69646756D01*
X122195500Y-69868273D01*
X122195500Y-70091726D01*
X122206176Y-70172812D01*
X122224665Y-70313245D01*
X122252766Y-70418118D01*
X122282495Y-70529071D01*
X122367998Y-70735492D01*
X122368002Y-70735502D01*
X122479718Y-70929001D01*
X122615740Y-71106266D01*
X122615748Y-71106275D01*
X122671792Y-71162319D01*
X122705277Y-71223642D01*
X122700293Y-71293334D01*
X122671792Y-71337681D01*
X122615740Y-71393733D01*
X122479718Y-71570998D01*
X122368002Y-71764497D01*
X122367998Y-71764507D01*
X122282495Y-71970928D01*
X122224665Y-72186756D01*
X122195500Y-72408273D01*
X122195500Y-72631726D01*
X122204129Y-72697263D01*
X122224665Y-72853245D01*
X122234435Y-72889706D01*
X122282495Y-73069071D01*
X122367998Y-73275492D01*
X122368002Y-73275502D01*
X122479718Y-73469001D01*
X122615740Y-73646266D01*
X122615748Y-73646275D01*
X122671792Y-73702319D01*
X122705277Y-73763642D01*
X122700293Y-73833334D01*
X122671792Y-73877681D01*
X122615740Y-73933733D01*
X122479718Y-74110998D01*
X122368002Y-74304497D01*
X122367998Y-74304507D01*
X122282495Y-74510928D01*
X122224665Y-74726756D01*
X122195500Y-74948273D01*
X122195500Y-75171726D01*
X122218183Y-75344017D01*
X122224665Y-75393245D01*
X122234435Y-75429706D01*
X122282495Y-75609071D01*
X122367998Y-75815492D01*
X122368002Y-75815502D01*
X122479718Y-76009001D01*
X122615740Y-76186266D01*
X122615748Y-76186275D01*
X122671792Y-76242319D01*
X122705277Y-76303642D01*
X122700293Y-76373334D01*
X122671792Y-76417681D01*
X122615740Y-76473733D01*
X122479718Y-76650998D01*
X122368002Y-76844497D01*
X122367998Y-76844507D01*
X122282495Y-77050928D01*
X122224665Y-77266756D01*
X122195500Y-77488273D01*
X122195500Y-77711726D01*
X122218183Y-77884017D01*
X122224665Y-77933245D01*
X122231968Y-77960500D01*
X122282495Y-78149071D01*
X122367998Y-78355492D01*
X122368002Y-78355502D01*
X122479718Y-78549001D01*
X122615740Y-78726266D01*
X122615748Y-78726275D01*
X122671792Y-78782319D01*
X122705277Y-78843642D01*
X122700293Y-78913334D01*
X122671792Y-78957681D01*
X122615740Y-79013733D01*
X122479718Y-79190998D01*
X122368002Y-79384497D01*
X122367998Y-79384507D01*
X122282495Y-79590928D01*
X122224665Y-79806756D01*
X122195500Y-80028273D01*
X122195500Y-80251726D01*
X122209572Y-80358605D01*
X122224665Y-80473245D01*
X122234666Y-80510568D01*
X122282495Y-80689071D01*
X122367998Y-80895492D01*
X122368002Y-80895502D01*
X122479718Y-81089001D01*
X122615740Y-81266266D01*
X122615748Y-81266275D01*
X122671792Y-81322319D01*
X122705277Y-81383642D01*
X122700293Y-81453334D01*
X122671792Y-81497681D01*
X122615740Y-81553733D01*
X122479718Y-81730998D01*
X122368002Y-81924497D01*
X122367998Y-81924507D01*
X122282495Y-82130928D01*
X122224665Y-82346756D01*
X122195500Y-82568273D01*
X122195500Y-82791726D01*
X122218183Y-82964017D01*
X122224665Y-83013245D01*
X122253580Y-83121157D01*
X122282495Y-83229071D01*
X122367998Y-83435492D01*
X122368002Y-83435502D01*
X122479718Y-83629001D01*
X122615740Y-83806266D01*
X122615748Y-83806275D01*
X122671792Y-83862319D01*
X122705277Y-83923642D01*
X122700293Y-83993334D01*
X122671792Y-84037681D01*
X122615740Y-84093733D01*
X122479718Y-84270998D01*
X122368002Y-84464497D01*
X122367998Y-84464507D01*
X122282495Y-84670928D01*
X122224665Y-84886756D01*
X122195500Y-85108273D01*
X122195500Y-85331726D01*
X122210269Y-85443900D01*
X122224665Y-85553245D01*
X122253580Y-85661157D01*
X122282495Y-85769071D01*
X122367998Y-85975492D01*
X122368002Y-85975502D01*
X122479718Y-86169001D01*
X122615740Y-86346266D01*
X122615748Y-86346275D01*
X122773725Y-86504252D01*
X122773733Y-86504259D01*
X122950998Y-86640281D01*
X123144497Y-86751997D01*
X123144498Y-86751997D01*
X123144501Y-86751999D01*
X123232212Y-86788330D01*
X123350927Y-86837504D01*
X123352622Y-86838079D01*
X123353060Y-86838387D01*
X123354682Y-86839059D01*
X123354531Y-86839421D01*
X123409778Y-86878266D01*
X123436134Y-86942974D01*
X123423322Y-87011659D01*
X123375410Y-87062514D01*
X123312768Y-87079500D01*
X100124500Y-87079500D01*
X100057461Y-87059815D01*
X100011706Y-87007011D01*
X100000500Y-86955500D01*
X100000500Y-86063282D01*
X100017112Y-86001283D01*
X100031999Y-85975499D01*
X100117505Y-85769069D01*
X100175335Y-85553245D01*
X100204500Y-85331719D01*
X100204500Y-85108281D01*
X100175335Y-84886755D01*
X100117505Y-84670931D01*
X100107068Y-84645735D01*
X100032001Y-84464507D01*
X100031997Y-84464497D01*
X99920281Y-84270998D01*
X99784259Y-84093733D01*
X99784252Y-84093725D01*
X99728208Y-84037682D01*
X99694722Y-83976359D01*
X99699706Y-83906667D01*
X99728208Y-83862318D01*
X99784252Y-83806274D01*
X99784260Y-83806266D01*
X99920281Y-83629001D01*
X100031999Y-83435499D01*
X100117505Y-83229069D01*
X100175335Y-83013245D01*
X100204500Y-82791719D01*
X100204500Y-82568281D01*
X100175335Y-82346755D01*
X100117505Y-82130931D01*
X100031999Y-81924501D01*
X100031997Y-81924497D01*
X99920281Y-81730998D01*
X99784259Y-81553733D01*
X99784252Y-81553725D01*
X99728208Y-81497682D01*
X99694722Y-81436359D01*
X99699706Y-81366667D01*
X99728208Y-81322318D01*
X99784252Y-81266274D01*
X99784260Y-81266266D01*
X99920281Y-81089001D01*
X100031999Y-80895499D01*
X100117505Y-80689069D01*
X100175335Y-80473245D01*
X100204500Y-80251719D01*
X100204500Y-80028281D01*
X100175335Y-79806755D01*
X100117505Y-79590931D01*
X100031999Y-79384501D01*
X100031997Y-79384497D01*
X99920281Y-79190998D01*
X99784259Y-79013733D01*
X99784252Y-79013725D01*
X99728208Y-78957682D01*
X99694722Y-78896359D01*
X99699706Y-78826667D01*
X99728208Y-78782318D01*
X99784252Y-78726274D01*
X99784260Y-78726266D01*
X99920281Y-78549001D01*
X100031999Y-78355499D01*
X100117505Y-78149069D01*
X100175335Y-77933245D01*
X100204500Y-77711719D01*
X100204500Y-77488281D01*
X100175335Y-77266755D01*
X100117505Y-77050931D01*
X100031999Y-76844501D01*
X100031997Y-76844497D01*
X99920281Y-76650998D01*
X99784259Y-76473733D01*
X99784252Y-76473725D01*
X99728208Y-76417682D01*
X99694722Y-76356359D01*
X99699706Y-76286667D01*
X99728208Y-76242318D01*
X99784252Y-76186274D01*
X99784260Y-76186266D01*
X99920281Y-76009001D01*
X100031999Y-75815499D01*
X100117505Y-75609069D01*
X100175335Y-75393245D01*
X100204500Y-75171719D01*
X100204500Y-74948281D01*
X100175335Y-74726755D01*
X100117505Y-74510931D01*
X100031999Y-74304501D01*
X100031997Y-74304497D01*
X99920281Y-74110998D01*
X99807141Y-73963553D01*
X99784260Y-73933734D01*
X99784259Y-73933733D01*
X99784252Y-73933725D01*
X99626275Y-73775748D01*
X99626266Y-73775740D01*
X99449001Y-73639718D01*
X99255502Y-73528002D01*
X99255492Y-73527998D01*
X99105779Y-73465985D01*
X99065551Y-73439105D01*
X98588585Y-72962137D01*
X98673694Y-72939333D01*
X98776306Y-72880090D01*
X98860090Y-72796306D01*
X98919333Y-72693694D01*
X98942137Y-72608585D01*
X99510745Y-73177193D01*
X99510746Y-73177192D01*
X99529746Y-73151043D01*
X99529756Y-73151027D01*
X99615787Y-72982184D01*
X99615788Y-72982182D01*
X99674354Y-72801937D01*
X99704000Y-72614762D01*
X99704000Y-72425237D01*
X99674354Y-72238062D01*
X99615789Y-72057821D01*
X99529752Y-71888966D01*
X99510745Y-71862806D01*
X98942137Y-72431414D01*
X98919333Y-72346306D01*
X98860090Y-72243694D01*
X98776306Y-72159910D01*
X98673694Y-72100667D01*
X98588584Y-72077861D01*
X99065551Y-71600893D01*
X99105769Y-71574018D01*
X99255499Y-71511999D01*
X99449001Y-71400281D01*
X99626266Y-71264260D01*
X99626270Y-71264255D01*
X99626275Y-71264252D01*
X99784252Y-71106275D01*
X99784255Y-71106270D01*
X99784260Y-71106266D01*
X99920281Y-70929001D01*
X100031999Y-70735499D01*
X100117505Y-70529069D01*
X100175335Y-70313245D01*
X100204500Y-70091719D01*
X100204500Y-69868281D01*
X100175335Y-69646755D01*
X100117505Y-69430931D01*
X100031999Y-69224501D01*
X99983094Y-69139794D01*
X99920281Y-69030998D01*
X99784259Y-68853733D01*
X99784252Y-68853725D01*
X99728208Y-68797682D01*
X99694722Y-68736359D01*
X99699706Y-68666667D01*
X99728208Y-68622318D01*
X99784252Y-68566274D01*
X99784260Y-68566266D01*
X99920281Y-68389001D01*
X100031999Y-68195499D01*
X100117505Y-67989069D01*
X100175335Y-67773245D01*
X100204500Y-67551719D01*
X100204500Y-67328281D01*
X100175335Y-67106755D01*
X100117505Y-66890931D01*
X100031999Y-66684501D01*
X99983094Y-66599794D01*
X99920281Y-66490998D01*
X99784259Y-66313733D01*
X99784252Y-66313725D01*
X99728208Y-66257682D01*
X99694722Y-66196359D01*
X99699706Y-66126667D01*
X99728208Y-66082318D01*
X99784252Y-66026274D01*
X99784260Y-66026266D01*
X99920281Y-65849001D01*
X100031999Y-65655499D01*
X100117505Y-65449069D01*
X100175335Y-65233245D01*
X100204500Y-65011719D01*
X100204500Y-64788281D01*
X100175335Y-64566755D01*
X100117505Y-64350931D01*
X100031999Y-64144501D01*
X99938269Y-63982155D01*
X99920281Y-63950998D01*
X99795140Y-63787913D01*
X99784260Y-63773734D01*
X99784259Y-63773733D01*
X99784252Y-63773725D01*
X99728208Y-63717682D01*
X99694722Y-63656359D01*
X99699706Y-63586667D01*
X99728208Y-63542318D01*
X99784252Y-63486274D01*
X99784260Y-63486266D01*
X99920281Y-63309001D01*
X100031999Y-63115499D01*
X100117505Y-62909069D01*
X100175335Y-62693245D01*
X100204500Y-62471719D01*
X100204500Y-62248281D01*
X100175335Y-62026755D01*
X100117505Y-61810931D01*
X100031999Y-61604501D01*
X100031997Y-61604497D01*
X99920281Y-61410998D01*
X99784259Y-61233733D01*
X99784252Y-61233725D01*
X99728208Y-61177682D01*
X99694722Y-61116359D01*
X99699706Y-61046667D01*
X99728208Y-61002318D01*
X99784252Y-60946274D01*
X99784260Y-60946266D01*
X99920281Y-60769001D01*
X100031999Y-60575499D01*
X100117505Y-60369069D01*
X100175335Y-60153245D01*
X100204500Y-59931719D01*
X100204500Y-59708281D01*
X100175335Y-59486755D01*
X100117505Y-59270931D01*
X100031999Y-59064501D01*
X100031997Y-59064497D01*
X99920281Y-58870998D01*
X99784259Y-58693733D01*
X99784252Y-58693725D01*
X99728208Y-58637682D01*
X99694722Y-58576359D01*
X99699706Y-58506667D01*
X99728208Y-58462318D01*
X99784252Y-58406274D01*
X99784260Y-58406266D01*
X99920281Y-58229001D01*
X100031999Y-58035499D01*
X100117505Y-57829069D01*
X100175335Y-57613245D01*
X100204500Y-57391719D01*
X100204500Y-57168281D01*
X100175335Y-56946755D01*
X100117505Y-56730931D01*
X100031999Y-56524501D01*
X100031997Y-56524497D01*
X99920281Y-56330998D01*
X99784259Y-56153733D01*
X99784252Y-56153725D01*
X99728208Y-56097682D01*
X99694722Y-56036359D01*
X99699706Y-55966667D01*
X99728208Y-55922318D01*
X99784252Y-55866274D01*
X99784260Y-55866266D01*
X99920281Y-55689001D01*
X100031999Y-55495499D01*
X100117505Y-55289069D01*
X100175335Y-55073245D01*
X100204500Y-54851719D01*
X100204500Y-54628281D01*
X100175335Y-54406755D01*
X100117505Y-54190931D01*
X100031999Y-53984501D01*
X100031997Y-53984497D01*
X99920281Y-53790998D01*
X99784259Y-53613733D01*
X99784252Y-53613725D01*
X99728208Y-53557682D01*
X99694722Y-53496359D01*
X99699706Y-53426667D01*
X99728208Y-53382318D01*
X99784252Y-53326274D01*
X99784260Y-53326266D01*
X99920281Y-53149001D01*
X100031999Y-52955499D01*
X100117505Y-52749069D01*
X100175335Y-52533245D01*
X100204500Y-52311719D01*
X100204500Y-52088281D01*
X100175335Y-51866755D01*
X100137644Y-51726090D01*
X100139307Y-51656244D01*
X100178469Y-51598381D01*
X100242698Y-51570877D01*
X100257419Y-51570000D01*
X122142581Y-51570000D01*
X122209620Y-51589685D01*
G37*
%TD.AperFunction*%
%TA.AperFunction,Conductor*%
G36*
X146574150Y-46200185D02*
G01*
X146594792Y-46216819D01*
X161463181Y-61085208D01*
X161496666Y-61146531D01*
X161499500Y-61172889D01*
X161499500Y-70495307D01*
X161493893Y-70514401D01*
X161493212Y-70534292D01*
X161484250Y-70547239D01*
X161479815Y-70562346D01*
X161464775Y-70575377D01*
X161453449Y-70591743D01*
X161429291Y-70606125D01*
X161427011Y-70608101D01*
X161423122Y-70609798D01*
X161422658Y-70609991D01*
X161375036Y-70619500D01*
X157881903Y-70619500D01*
X157648631Y-70656446D01*
X157424003Y-70729433D01*
X157213565Y-70836657D01*
X157022488Y-70975484D01*
X157022487Y-70975485D01*
X150414792Y-77583181D01*
X150353469Y-77616666D01*
X150327111Y-77619500D01*
X146780100Y-77619500D01*
X146713061Y-77599815D01*
X146667306Y-77547011D01*
X146657362Y-77477853D01*
X146662169Y-77457181D01*
X146683553Y-77391368D01*
X146720500Y-77158094D01*
X146720529Y-77157731D01*
X146720614Y-77157375D01*
X146721263Y-77153280D01*
X146721585Y-77153331D01*
X146729585Y-77120001D01*
X146756054Y-77056100D01*
X146818838Y-76821789D01*
X146850500Y-76581288D01*
X146850500Y-76338712D01*
X146818838Y-76098211D01*
X146756054Y-75863900D01*
X146663224Y-75639788D01*
X146541936Y-75429711D01*
X146415922Y-75265486D01*
X146390728Y-75200317D01*
X146404766Y-75131872D01*
X146415922Y-75114514D01*
X146417099Y-75112979D01*
X146541936Y-74950289D01*
X146663224Y-74740212D01*
X146756054Y-74516100D01*
X146818838Y-74281789D01*
X146850500Y-74041288D01*
X146850500Y-73798712D01*
X146849982Y-73794781D01*
X146837439Y-73699500D01*
X146818838Y-73558211D01*
X146756054Y-73323900D01*
X146754523Y-73320205D01*
X146695286Y-73177193D01*
X146663224Y-73099788D01*
X146541936Y-72889711D01*
X146394265Y-72697262D01*
X146394260Y-72697256D01*
X146315103Y-72618099D01*
X146281618Y-72556776D01*
X146286602Y-72487084D01*
X146292913Y-72473265D01*
X146343597Y-72337376D01*
X146343598Y-72337372D01*
X146349999Y-72277844D01*
X146350000Y-72277827D01*
X146350000Y-71630000D01*
X145433012Y-71630000D01*
X145465925Y-71572993D01*
X145500000Y-71445826D01*
X145500000Y-71314174D01*
X145465925Y-71187007D01*
X145433012Y-71130000D01*
X146350000Y-71130000D01*
X146350000Y-70482172D01*
X146349999Y-70482155D01*
X146343598Y-70422627D01*
X146343596Y-70422620D01*
X146293354Y-70287913D01*
X146293350Y-70287906D01*
X146207190Y-70172812D01*
X146207187Y-70172809D01*
X146092093Y-70086649D01*
X146092086Y-70086645D01*
X145957379Y-70036403D01*
X145957372Y-70036401D01*
X145897844Y-70030000D01*
X145250000Y-70030000D01*
X145250000Y-70946988D01*
X145192993Y-70914075D01*
X145065826Y-70880000D01*
X144934174Y-70880000D01*
X144807007Y-70914075D01*
X144750000Y-70946988D01*
X144750000Y-70030000D01*
X144102155Y-70030000D01*
X144042627Y-70036401D01*
X144042620Y-70036403D01*
X143907913Y-70086645D01*
X143907906Y-70086649D01*
X143792812Y-70172809D01*
X143792809Y-70172812D01*
X143706649Y-70287906D01*
X143706645Y-70287913D01*
X143656403Y-70422620D01*
X143656401Y-70422627D01*
X143650000Y-70482155D01*
X143650000Y-71130000D01*
X144566988Y-71130000D01*
X144534075Y-71187007D01*
X144500000Y-71314174D01*
X144500000Y-71445826D01*
X144534075Y-71572993D01*
X144566988Y-71630000D01*
X143650000Y-71630000D01*
X143650000Y-72277841D01*
X143650474Y-72282243D01*
X143638070Y-72351003D01*
X143590460Y-72402141D01*
X143527185Y-72419500D01*
X139842889Y-72419500D01*
X139775850Y-72399815D01*
X139755208Y-72383181D01*
X133667511Y-66295484D01*
X133554442Y-66213334D01*
X133476434Y-66156657D01*
X133265996Y-66049433D01*
X133041368Y-65976446D01*
X132808097Y-65939500D01*
X132808092Y-65939500D01*
X125482805Y-65939500D01*
X125415766Y-65919815D01*
X125370011Y-65867011D01*
X125360067Y-65797853D01*
X125375418Y-65753500D01*
X125431999Y-65655499D01*
X125517505Y-65449069D01*
X125575335Y-65233245D01*
X125604500Y-65011719D01*
X125604500Y-64788281D01*
X125575335Y-64566755D01*
X125517505Y-64350931D01*
X125431999Y-64144501D01*
X125338269Y-63982155D01*
X125320281Y-63950998D01*
X125195140Y-63787913D01*
X125184260Y-63773734D01*
X125184259Y-63773733D01*
X125184252Y-63773725D01*
X125128208Y-63717682D01*
X125094722Y-63656359D01*
X125099706Y-63586667D01*
X125128208Y-63542318D01*
X125184252Y-63486274D01*
X125184260Y-63486266D01*
X125320281Y-63309001D01*
X125431999Y-63115499D01*
X125517505Y-62909069D01*
X125575335Y-62693245D01*
X125604500Y-62471719D01*
X125604500Y-62248281D01*
X125575335Y-62026755D01*
X125517505Y-61810931D01*
X125431999Y-61604501D01*
X125431997Y-61604497D01*
X125320281Y-61410998D01*
X125184259Y-61233733D01*
X125184252Y-61233725D01*
X125128208Y-61177682D01*
X125094722Y-61116359D01*
X125099706Y-61046667D01*
X125128208Y-61002318D01*
X125184252Y-60946274D01*
X125184260Y-60946266D01*
X125320281Y-60769001D01*
X125431999Y-60575499D01*
X125517505Y-60369069D01*
X125525211Y-60340306D01*
X125557302Y-60284723D01*
X134545208Y-51296819D01*
X134606531Y-51263334D01*
X134632889Y-51260500D01*
X135002185Y-51260500D01*
X135069224Y-51280185D01*
X135114979Y-51332989D01*
X135125474Y-51397757D01*
X135125000Y-51402158D01*
X135125000Y-52050000D01*
X136041988Y-52050000D01*
X136009075Y-52107007D01*
X135975000Y-52234174D01*
X135975000Y-52365826D01*
X136009075Y-52492993D01*
X136041988Y-52550000D01*
X135125000Y-52550000D01*
X135125000Y-53197844D01*
X135131401Y-53257372D01*
X135131403Y-53257379D01*
X135181645Y-53392086D01*
X135181649Y-53392093D01*
X135267809Y-53507187D01*
X135267812Y-53507190D01*
X135382906Y-53593350D01*
X135382913Y-53593354D01*
X135517620Y-53643596D01*
X135517627Y-53643598D01*
X135577155Y-53649999D01*
X135577172Y-53650000D01*
X136225000Y-53650000D01*
X136225000Y-52733012D01*
X136282007Y-52765925D01*
X136409174Y-52800000D01*
X136540826Y-52800000D01*
X136667993Y-52765925D01*
X136725000Y-52733012D01*
X136725000Y-53650000D01*
X137372828Y-53650000D01*
X137372844Y-53649999D01*
X137432372Y-53643598D01*
X137432379Y-53643596D01*
X137567086Y-53593354D01*
X137567093Y-53593350D01*
X137682187Y-53507190D01*
X137682190Y-53507187D01*
X137768350Y-53392093D01*
X137768354Y-53392086D01*
X137818596Y-53257379D01*
X137818598Y-53257372D01*
X137824999Y-53197844D01*
X137825000Y-53197827D01*
X137825000Y-52550000D01*
X136908012Y-52550000D01*
X136940925Y-52492993D01*
X136975000Y-52365826D01*
X136975000Y-52234174D01*
X136940925Y-52107007D01*
X136908012Y-52050000D01*
X137825000Y-52050000D01*
X137825000Y-51402172D01*
X137824999Y-51402155D01*
X137818598Y-51342627D01*
X137818596Y-51342620D01*
X137765254Y-51199601D01*
X137766781Y-51199031D01*
X137754100Y-51140735D01*
X137778516Y-51075270D01*
X137790090Y-51061912D01*
X137869265Y-50982738D01*
X138016936Y-50790289D01*
X138138224Y-50580212D01*
X138231054Y-50356100D01*
X138293838Y-50121789D01*
X138325500Y-49881288D01*
X138325500Y-49638712D01*
X138293838Y-49398211D01*
X138231054Y-49163900D01*
X138138224Y-48939788D01*
X138016936Y-48729711D01*
X137890922Y-48565486D01*
X137865728Y-48500317D01*
X137879766Y-48431872D01*
X137890922Y-48414514D01*
X137940647Y-48349711D01*
X138016936Y-48250289D01*
X138138224Y-48040212D01*
X138231054Y-47816100D01*
X138293838Y-47581789D01*
X138325500Y-47341288D01*
X138325500Y-47098712D01*
X138293838Y-46858211D01*
X138231054Y-46623900D01*
X138138224Y-46399788D01*
X138119004Y-46366499D01*
X138102532Y-46298600D01*
X138125384Y-46232573D01*
X138180305Y-46189383D01*
X138226392Y-46180500D01*
X146507111Y-46180500D01*
X146574150Y-46200185D01*
G37*
%TD.AperFunction*%
%TA.AperFunction,Conductor*%
G36*
X80523473Y-53081066D02*
G01*
X80579406Y-53122938D01*
X80603823Y-53188402D01*
X80588971Y-53256675D01*
X80578515Y-53272734D01*
X80458067Y-53429706D01*
X80336777Y-53639785D01*
X80336773Y-53639794D01*
X80243947Y-53863895D01*
X80181161Y-54098214D01*
X80149500Y-54338711D01*
X80149500Y-54581288D01*
X80181161Y-54821785D01*
X80243947Y-55056104D01*
X80336773Y-55280205D01*
X80336777Y-55280214D01*
X80341891Y-55289071D01*
X80458064Y-55490289D01*
X80458066Y-55490292D01*
X80458067Y-55490293D01*
X80605733Y-55682736D01*
X80605739Y-55682743D01*
X80684896Y-55761900D01*
X80718381Y-55823223D01*
X80713397Y-55892915D01*
X80707082Y-55906741D01*
X80656403Y-56042620D01*
X80656401Y-56042627D01*
X80650000Y-56102155D01*
X80650000Y-56750000D01*
X81566988Y-56750000D01*
X81534075Y-56807007D01*
X81500000Y-56934174D01*
X81500000Y-57065826D01*
X81534075Y-57192993D01*
X81566988Y-57250000D01*
X80650000Y-57250000D01*
X80650000Y-57897844D01*
X80656401Y-57957372D01*
X80656403Y-57957379D01*
X80706645Y-58092086D01*
X80706649Y-58092093D01*
X80792809Y-58207187D01*
X80792812Y-58207190D01*
X80907906Y-58293350D01*
X80907913Y-58293354D01*
X81042620Y-58343596D01*
X81042627Y-58343598D01*
X81102155Y-58349999D01*
X81102172Y-58350000D01*
X81750000Y-58350000D01*
X81750000Y-57433012D01*
X81807007Y-57465925D01*
X81934174Y-57500000D01*
X82065826Y-57500000D01*
X82192993Y-57465925D01*
X82250000Y-57433012D01*
X82250000Y-58350000D01*
X82897828Y-58350000D01*
X82897844Y-58349999D01*
X82957372Y-58343598D01*
X82957379Y-58343596D01*
X83092086Y-58293354D01*
X83092093Y-58293350D01*
X83207187Y-58207190D01*
X83207190Y-58207187D01*
X83293350Y-58092093D01*
X83293354Y-58092086D01*
X83343596Y-57957379D01*
X83343598Y-57957372D01*
X83349999Y-57897844D01*
X83350000Y-57897827D01*
X83350000Y-57250000D01*
X82433012Y-57250000D01*
X82465925Y-57192993D01*
X82500000Y-57065826D01*
X82500000Y-56934174D01*
X82465925Y-56807007D01*
X82433012Y-56750000D01*
X83350000Y-56750000D01*
X83350000Y-56102172D01*
X83349999Y-56102158D01*
X83349526Y-56097757D01*
X83361930Y-56028997D01*
X83409540Y-55977859D01*
X83472815Y-55960500D01*
X95007111Y-55960500D01*
X95074150Y-55980185D01*
X95094792Y-55996819D01*
X96842694Y-57744721D01*
X96874787Y-57800305D01*
X96882495Y-57829069D01*
X96882495Y-57829070D01*
X96967995Y-58035487D01*
X96968002Y-58035502D01*
X97079718Y-58229001D01*
X97215740Y-58406266D01*
X97215748Y-58406275D01*
X97271792Y-58462319D01*
X97305277Y-58523642D01*
X97300293Y-58593334D01*
X97271792Y-58637681D01*
X97215740Y-58693733D01*
X97079718Y-58870998D01*
X96968002Y-59064497D01*
X96967998Y-59064507D01*
X96882495Y-59270928D01*
X96824665Y-59486756D01*
X96795500Y-59708273D01*
X96795500Y-59931726D01*
X96818183Y-60104017D01*
X96824665Y-60153245D01*
X96853580Y-60261157D01*
X96882495Y-60369071D01*
X96967998Y-60575492D01*
X96968002Y-60575502D01*
X97079718Y-60769001D01*
X97215740Y-60946266D01*
X97215748Y-60946275D01*
X97271792Y-61002319D01*
X97305277Y-61063642D01*
X97300293Y-61133334D01*
X97271792Y-61177681D01*
X97215740Y-61233733D01*
X97079718Y-61410998D01*
X96968002Y-61604497D01*
X96967995Y-61604512D01*
X96882493Y-61810933D01*
X96874788Y-61839690D01*
X96842695Y-61895275D01*
X92854792Y-65883181D01*
X92793469Y-65916666D01*
X92767111Y-65919500D01*
X83472815Y-65919500D01*
X83405776Y-65899815D01*
X83360021Y-65847011D01*
X83349526Y-65782243D01*
X83349999Y-65777841D01*
X83350000Y-65777827D01*
X83350000Y-65130000D01*
X82433012Y-65130000D01*
X82465925Y-65072993D01*
X82500000Y-64945826D01*
X82500000Y-64814174D01*
X82465925Y-64687007D01*
X82433012Y-64630000D01*
X83350000Y-64630000D01*
X83350000Y-63982172D01*
X83349999Y-63982155D01*
X83343598Y-63922627D01*
X83343596Y-63922620D01*
X83293354Y-63787913D01*
X83293350Y-63787906D01*
X83207190Y-63672812D01*
X83207187Y-63672809D01*
X83092093Y-63586649D01*
X83092086Y-63586645D01*
X82957379Y-63536403D01*
X82957372Y-63536401D01*
X82897844Y-63530000D01*
X82250000Y-63530000D01*
X82250000Y-64446988D01*
X82192993Y-64414075D01*
X82065826Y-64380000D01*
X81934174Y-64380000D01*
X81807007Y-64414075D01*
X81750000Y-64446988D01*
X81750000Y-63530000D01*
X81102155Y-63530000D01*
X81042627Y-63536401D01*
X81042620Y-63536403D01*
X80907913Y-63586645D01*
X80907906Y-63586649D01*
X80792812Y-63672809D01*
X80792809Y-63672812D01*
X80706649Y-63787906D01*
X80706645Y-63787913D01*
X80656403Y-63922620D01*
X80656401Y-63922627D01*
X80650000Y-63982155D01*
X80650000Y-64630000D01*
X81566988Y-64630000D01*
X81534075Y-64687007D01*
X81500000Y-64814174D01*
X81500000Y-64945826D01*
X81534075Y-65072993D01*
X81566988Y-65130000D01*
X80650000Y-65130000D01*
X80650000Y-65777844D01*
X80656401Y-65837372D01*
X80656403Y-65837379D01*
X80709746Y-65980399D01*
X80708217Y-65980969D01*
X80720899Y-66039262D01*
X80696484Y-66104727D01*
X80684897Y-66118099D01*
X80605732Y-66197264D01*
X80458067Y-66389706D01*
X80336777Y-66599785D01*
X80336773Y-66599794D01*
X80243947Y-66823895D01*
X80181161Y-67058214D01*
X80149500Y-67298711D01*
X80149500Y-67541288D01*
X80181161Y-67781785D01*
X80243947Y-68016104D01*
X80336773Y-68240205D01*
X80336776Y-68240212D01*
X80458064Y-68450289D01*
X80458066Y-68450292D01*
X80458067Y-68450293D01*
X80584077Y-68614514D01*
X80609271Y-68679683D01*
X80595232Y-68748128D01*
X80584077Y-68765486D01*
X80458067Y-68929706D01*
X80336777Y-69139785D01*
X80336773Y-69139794D01*
X80243947Y-69363895D01*
X80181161Y-69598214D01*
X80149500Y-69838711D01*
X80149500Y-70081288D01*
X80181161Y-70321785D01*
X80243947Y-70556104D01*
X80336773Y-70780205D01*
X80336777Y-70780214D01*
X80355995Y-70813500D01*
X80372468Y-70881400D01*
X80349616Y-70947427D01*
X80294695Y-70990617D01*
X80248608Y-70999500D01*
X76672889Y-70999500D01*
X76605850Y-70979815D01*
X76585208Y-70963181D01*
X76477511Y-70855484D01*
X76373899Y-70780205D01*
X76286434Y-70716657D01*
X76075996Y-70609433D01*
X75851368Y-70536446D01*
X75618089Y-70499498D01*
X75614765Y-70499237D01*
X75613576Y-70498783D01*
X75613280Y-70498737D01*
X75613289Y-70498674D01*
X75549478Y-70474351D01*
X75508010Y-70418118D01*
X75500500Y-70375620D01*
X75500500Y-58052888D01*
X75520185Y-57985849D01*
X75536814Y-57965212D01*
X80392460Y-53109565D01*
X80453781Y-53076082D01*
X80523473Y-53081066D01*
G37*
%TD.AperFunction*%
%TD*%
M02*
